name GIL08_fast1.mot
datacolumns 153
datarows 4
range 0.55833334 0.58333337
endheader

                time	           pelvis_tx	           pelvis_ty	           pelvis_tz	         pelvis_tilt	         pelvis_list	     pelvis_rotation	       hip_flexion_r	     hip_adduction_r	      hip_rotation_r	        knee_angle_r	       ankle_angle_r	    subtalar_angle_r	         mtp_angle_r	       hip_flexion_l	     hip_adduction_l	      hip_rotation_l	        knee_angle_l	       ankle_angle_l	    subtalar_angle_l	         mtp_angle_l	    lumbar_extension	      lumbar_bending	     lumbar_rotation	     ground_force_vx	     ground_force_vy	     ground_force_vz	     ground_force_px	     ground_force_py	     ground_force_pz	     ground_force_vx	     ground_force_vy	     ground_force_vz	     ground_force_px	     ground_force_py	     ground_force_pz	     ground_torque_x	     ground_torque_y	     ground_torque_z	     ground_torque_x	     ground_torque_y	     ground_torque_z	    ground_marker_px	    ground_marker_py	    ground_marker_pz	    ground_marker_px	    ground_marker_py	    ground_marker_pz	    ground_marker_px	    ground_marker_py	    ground_marker_pz	    ground_marker_px	    ground_marker_py	    ground_marker_pz	    ground_marker_px	    ground_marker_py	    ground_marker_pz	    ground_marker_px	    ground_marker_py	    ground_marker_pz	    ground_marker_px	    ground_marker_py	    ground_marker_pz	    ground_marker_px	    ground_marker_py	    ground_marker_pz	    ground_marker_px	    ground_marker_py	    ground_marker_pz	    ground_marker_px	    ground_marker_py	    ground_marker_pz	    ground_marker_px	    ground_marker_py	    ground_marker_pz	    ground_marker_px	    ground_marker_py	    ground_marker_pz	    ground_marker_px	    ground_marker_py	    ground_marker_pz	    ground_marker_px	    ground_marker_py	    ground_marker_pz	    ground_marker_px	    ground_marker_py	    ground_marker_pz	    ground_marker_px	    ground_marker_py	    ground_marker_pz	    ground_marker_px	    ground_marker_py	    ground_marker_pz	    ground_marker_px	    ground_marker_py	    ground_marker_pz	    ground_marker_px	    ground_marker_py	    ground_marker_pz	    ground_marker_px	    ground_marker_py	    ground_marker_pz	    ground_marker_px	    ground_marker_py	    ground_marker_pz	    ground_marker_px	    ground_marker_py	    ground_marker_pz	    ground_marker_px	    ground_marker_py	    ground_marker_pz	    ground_marker_px	    ground_marker_py	    ground_marker_pz	    ground_marker_px	    ground_marker_py	    ground_marker_pz	    ground_marker_px	    ground_marker_py	    ground_marker_pz	    ground_marker_px	    ground_marker_py	    ground_marker_pz	    ground_marker_px	    ground_marker_py	    ground_marker_pz	    ground_marker_px	    ground_marker_py	    ground_marker_pz	    ground_marker_px	    ground_marker_py	    ground_marker_pz	    ground_marker_px	    ground_marker_py	    ground_marker_pz	    ground_marker_px	    ground_marker_py	    ground_marker_pz	    ground_marker_px	    ground_marker_py	    ground_marker_pz	    ground_marker_px	    ground_marker_py	    ground_marker_pz	    ground_marker_px	    ground_marker_py	    ground_marker_pz	    ground_marker_px	    ground_marker_py	    ground_marker_pz	    ground_marker_px	    ground_marker_py	    ground_marker_pz	
          0.55833334	          1.27732515	          0.94117630	         -0.26177746	          3.13405991	         -3.64497423	          7.24877787	         26.63549042	         -0.57381910	         -1.39299989	        -26.99613953	         -3.82240391	          0.00000000	          0.00000000	        -22.21469498	         -9.19805813	          1.90143573	        -25.29532433	         -9.43081951	          0.00000000	          0.00000000	        -20.99610710	          4.69551277	         -7.83750963	       -132.81574194	        583.25157707	          1.67903586	          1.43775037	          0.00000000	         -0.18931189	         47.45344925	        153.12344478	        -10.91320914	          0.80768268	          0.00000000	         -0.31083429	          0.00000000	          0.31699228	          0.00000000	          0.00000000	          0.00469778	          0.00000000	          1.19895649	          0.86049294	         -0.24699464	          1.20415366	          0.84913373	         -0.19403619	          1.18983161	          0.84456557	         -0.29954052	          1.40951574	          0.48619729	         -0.20197979	          1.04709637	          0.45396641	         -0.33058512	          1.42801595	          0.07074109	         -0.19598961	          0.74717402	          0.15513004	         -0.33098900	          1.27732515	          0.94117630	         -0.26177746	          1.29113722	          0.94558185	         -0.16002868	          1.26351297	          0.93677074	         -0.36352623	          1.08504021	          0.97388738	         -0.19195266	          1.07098103	          0.97423416	         -0.27594927	          1.41597164	          0.48855674	         -0.14287814	          1.04414451	          0.45974588	         -0.38973013	          1.40019071	          0.49628872	         -0.26608321	          1.05288410	          0.45047387	         -0.27732340	          1.42466450	          0.07113759	         -0.15813977	          0.74061269	          0.16176710	         -0.36937064	          1.42727685	          0.07152154	         -0.22822519	          0.76013249	          0.15982540	         -0.30281737	          1.14075005	          1.42776334	         -0.25206241	          1.23579705	          1.35603940	         -0.16453305	          1.23903561	          1.35493302	         -0.32357523	          1.22519147	          1.35691285	         -0.24827592	          1.26073134	          1.15509355	         -0.25289473	          1.39610994	          0.58391887	         -0.05830810	          1.23283207	          0.52602160	         -0.35792896	          1.39321339	          0.65198332	         -0.12454833	          1.17580426	          0.61051828	         -0.38110396	          1.42427838	          0.57908046	         -0.15285574	          1.13873994	          0.53212845	         -0.37865606	          1.43548942	          0.14718165	         -0.09316123	          0.89937443	          0.16560146	         -0.34289402	          1.41625297	          0.20153116	         -0.15543653	          0.88321346	          0.24693705	         -0.34253687	          1.54917622	          0.04336484	         -0.19701141	          0.79960674	          0.04373794	         -0.32366735	
          0.56666672	          1.29238176	          0.94268554	         -0.26041636	          3.18508434	         -4.17652416	          7.34281301	         26.06473160	          0.24066605	         -1.69587731	        -27.86918259	         -2.44757366	          0.00000000	          0.00000000	        -21.19668198	         -9.97508907	          1.16865325	        -27.45232010	        -13.73478603	          0.00000000	          0.00000000	        -20.69825363	          5.43858862	         -8.01360416	       -133.17797513	        621.37555678	         -2.82450798	          1.44068860	          0.00000000	         -0.18961598	         24.75963096	         96.13377331	        -10.83129971	          0.81403058	          0.00000000	         -0.30892343	          0.00000000	          0.23339345	          0.00000000	          0.00000000	          0.07028934	          0.00000000	          1.21366024	          0.86171460	         -0.24539697	          1.21948957	          0.85119468	         -0.19163464	          1.20485055	          0.84567505	         -0.29704997	          1.42031181	          0.48677185	         -0.20220868	          1.06844044	          0.45212048	         -0.33067778	          1.42805076	          0.07061874	         -0.19608167	          0.76262748	          0.15975000	         -0.33276960	          1.29238176	          0.94268554	         -0.26041636	          1.30647647	          0.94799995	         -0.15892132	          1.27828717	          0.93737113	         -0.36191142	          1.09978592	          0.97585189	         -0.19180618	          1.08591938	          0.97533000	         -0.27588561	          1.42707932	          0.48878703	         -0.14312917	          1.06470156	          0.45846143	         -0.38972068	          1.41126370	          0.49715433	         -0.26643592	          1.07563698	          0.44728303	         -0.27750346	          1.42524362	          0.07112443	         -0.15818888	          0.75559783	          0.16737555	         -0.37088370	          1.42744100	          0.07165698	         -0.22826160	          0.77581245	          0.16413715	         -0.30477691	          1.15520370	          1.42910182	         -0.25065413	          1.25031114	          1.35748065	         -0.16318531	          1.25412273	          1.35688508	         -0.32222658	          1.24000108	          1.35856915	         -0.24696708	          1.27644348	          1.15692282	         -0.25208572	          1.40847003	          0.58432204	         -0.05814509	          1.25323129	          0.52663666	         -0.35970819	          1.40624249	          0.65229803	         -0.12426619	          1.19480777	          0.61012542	         -0.38160819	          1.43646979	          0.57927203	         -0.15292624	          1.15892673	          0.53083760	         -0.37925172	          1.43897903	          0.14678545	         -0.09331863	          0.91453612	          0.16728415	         -0.34690511	          1.41994178	          0.20186505	         -0.15523620	          0.90018404	          0.24866660	         -0.34481904	          1.54963350	          0.04287761	         -0.19704877	          0.80449891	          0.04485175	         -0.32368982	
          0.57500005	          1.30712008	          0.94442832	         -0.25926968	          3.22192192	         -4.73208141	          7.47634459	         25.35675049	          1.01927340	         -2.00668311	        -28.44004822	         -1.14940846	          0.00000000	          0.00000000	        -19.96647644	        -10.73010254	          0.45356029	        -29.74864006	        -18.10341454	          0.00000000	          0.00000000	        -20.57941055	          6.09837198	         -8.02764511	       -129.36169562	        651.05759881	         -8.52279907	          1.44234753	          0.00000000	         -0.18957777	          9.56186406	         56.98565731	         -9.08169408	          0.82054260	          0.00000000	         -0.30702390	          0.00000000	          0.18431229	          0.00000000	          0.00000000	          0.10138486	          0.00000000	          1.22795916	          0.86300540	         -0.24385116	          1.23453200	          0.85354364	         -0.18937169	          1.21949756	          0.84704500	         -0.29467550	          1.42985630	          0.48704582	         -0.20212057	          1.09073198	          0.45015970	         -0.33070993	          1.42781568	          0.07055166	         -0.19600178	          0.77948105	          0.16437081	         -0.33451688	          1.30712008	          0.94442832	         -0.25926968	          1.32156694	          0.95067304	         -0.15808082	          1.29267311	          0.93818361	         -0.36045855	          1.11435127	          0.97807634	         -0.19169404	          1.10064828	          0.97670162	         -0.27584168	          1.43693149	          0.48876235	         -0.14306767	          1.08610165	          0.45701170	         -0.38963243	          1.41977561	          0.49729267	         -0.26619375	          1.09941936	          0.44311523	         -0.27793676	          1.42550862	          0.07112014	         -0.15807614	          0.77216589	          0.17284232	         -0.37239790	          1.42769134	          0.07180635	         -0.22816262	          0.79240763	          0.16870177	         -0.30656847	          1.16965699	          1.43067896	         -0.24927478	          1.26472211	          1.35912371	         -0.16189459	          1.26849604	          1.35883343	         -0.32065693	          1.25439072	          1.36035728	         -0.24553184	          1.29108775	          1.15876746	         -0.25103787	          1.41987717	          0.58451951	         -0.05779739	          1.27403378	          0.52761805	         -0.36163867	          1.41830897	          0.65236950	         -0.12383629	          1.21318090	          0.60990661	         -0.38168478	          1.44716012	          0.57885224	         -0.15280949	          1.17926955	          0.52991962	         -0.37981179	          1.44188309	          0.14639704	         -0.09326232	          0.93094134	          0.16890708	         -0.35031170	          1.42334318	          0.20203593	         -0.15479124	          0.91827053	          0.25037587	         -0.34684041	          1.54979169	          0.04259685	         -0.19699667	          0.81071556	          0.04674214	         -0.32384801	
          0.58333337	          1.32153749	          0.94632590	         -0.25839445	          3.23401260	         -5.27248192	          7.62068462	         24.55602264	          1.73164308	         -2.28468728	        -28.74363708	          0.00810610	          0.00000000	          0.00000000	        -18.54562187	        -11.39128590	         -0.20208117	        -32.17206573	        -22.13629341	          0.00000000	          0.00000000	        -20.55483627	          6.67321396	         -7.94856930	       -122.08969908	        669.75996172	        -15.03092815	          1.44339233	          0.00000000	         -0.18925903	          1.46191850	         31.25250088	         -6.10172984	          0.82705463	          0.00000000	         -0.30512436	          0.00000000	          0.17328490	          0.00000000	          0.00000000	          0.10187257	          0.00000000	          1.24194920	          0.86442733	         -0.24240178	          1.24922478	          0.85607153	         -0.18740295	          1.23377800	          0.84863228	         -0.29258475	          1.43834722	          0.48709151	         -0.20178232	          1.11387277	          0.44821629	         -0.33064586	          1.42756629	          0.07051469	         -0.19578432	          0.79752940	          0.16915792	         -0.33606628	          1.32153749	          0.94632590	         -0.25839445	          1.33635032	          0.95345980	         -0.15753016	          1.30672479	          0.93919194	         -0.35925874	          1.12873375	          0.98050743	         -0.19163436	          1.11516130	          0.97830445	         -0.27582103	          1.44571054	          0.48856547	         -0.14275810	          1.10829985	          0.45547357	         -0.38943809	          1.42599094	          0.49666876	         -0.26536718	          1.12370193	          0.43986458	         -0.27789888	          1.42567539	          0.07111002	         -0.15783606	          0.79015929	          0.17824554	         -0.37379354	          1.42777228	          0.07181274	         -0.22792478	          0.81001270	          0.17334118	         -0.30805111	          1.18405235	          1.43253088	         -0.24796760	          1.27908492	          1.36095715	         -0.16070020	          1.28249395	          1.36082923	         -0.31909245	          1.26856244	          1.36228406	         -0.24412350	          1.30511808	          1.16067684	         -0.24992049	          1.43041468	          0.58461088	         -0.05732073	          1.29513109	          0.52899593	         -0.36356029	          1.42943883	          0.65230882	         -0.12350335	          1.23205006	          0.61001527	         -0.38198370	          1.45647466	          0.57789874	         -0.15264595	          1.19997954	          0.52927184	         -0.38026059	          1.44434905	          0.14599350	         -0.09300961	          0.94849700	          0.17050497	         -0.35274437	          1.42654121	          0.20192929	         -0.15428178	          0.93765795	          0.25213030	         -0.34838372	          1.54980874	          0.04238825	         -0.19690312	          0.81874079	          0.04951708	         -0.32417953	
